HIERARCHY
ROOT hip
{
  OFFSET 0 0 0
  CHANNELS 6 Xposition Yposition Zposition Zrotation Yrotation Xrotation
  JOINT abdomen
  {
    OFFSET 0 20.6881 -0.73152
    CHANNELS 3 Zrotation Xrotation Yrotation
    JOINT chest
    {
      OFFSET 0 11.7043 -0.48768
      CHANNELS 3 Zrotation Xrotation Yrotation
      JOINT neck
      {
        OFFSET 0 22.1894 -2.19456
        CHANNELS 3 Zrotation Xrotation Yrotation
        JOINT head
        {
          OFFSET -0.24384 7.07133 1.2192
          CHANNELS 3 Zrotation Xrotation Yrotation
          JOINT leftEye
          {
            OFFSET 4.14528 8.04674 8.04672
            CHANNELS 3 Zrotation Xrotation Yrotation
            End Site
            {
              OFFSET 1 0 0
            }
          }
          JOINT rightEye
          {
            OFFSET -3.6576 8.04674 8.04672
            CHANNELS 3 Zrotation Xrotation Yrotation
            End Site
            {
              OFFSET 1 0 0
            }
          }
        }
      }
      JOINT rCollar
      {
        OFFSET -2.68224 19.2634 -4.8768
        CHANNELS 3 Zrotation Xrotation Yrotation
        JOINT rShldr
        {
          OFFSET -8.77824 -1.95073 1.46304
          CHANNELS 3 Zrotation Xrotation Yrotation
          JOINT rForeArm
          {
            OFFSET -28.1742 -1.7115 0.48768
            CHANNELS 3 Zrotation Xrotation Yrotation
            JOINT rHand
            {
              OFFSET -22.5879 0.773209 7.07136
              CHANNELS 3 Zrotation Xrotation Yrotation
              JOINT rThumb1
              {
                OFFSET -1.2192 -0.487915 3.41376
                CHANNELS 3 Zrotation Xrotation Yrotation
                JOINT rThumb2
                {
                  OFFSET -3.37035 -0.52449 3.41376
                  CHANNELS 3 Zrotation Xrotation Yrotation
                  End Site
                  {
                    OFFSET -1.78271 -1.18214 1.43049
                  }
                }
              }
              JOINT rIndex1
              {
                OFFSET -7.75947 0.938293 5.60832
                CHANNELS 3 Zrotation Xrotation Yrotation
                JOINT rIndex2
                {
                  OFFSET -2.54057 -0.884171 1.56538
                  CHANNELS 3 Zrotation Xrotation Yrotation
                  End Site
                  {
                    OFFSET -1.62519 -0.234802 1.16502
                  }
                }
              }
              JOINT rMid1
              {
                OFFSET -8.24714 1.18213 3.41376
                CHANNELS 3 Zrotation Xrotation Yrotation
                JOINT rMid2
                {
                  OFFSET -3.10165 -0.590103 1.0647
                  CHANNELS 3 Zrotation Xrotation Yrotation
                  End Site
                  {
                    OFFSET -2.48547 -0.328903 0.83742
                  }
                }
              }
              JOINT rRing1
              {
                OFFSET -8.82822 0.546677 1.51678
                CHANNELS 3 Zrotation Xrotation Yrotation
                JOINT rRing2
                {
                  OFFSET -2.60934 -0.819778 -0.0198488
                  CHANNELS 3 Zrotation Xrotation Yrotation
                  End Site
                  {
                    OFFSET -2.33842 -0.294052 0.168128
                  }
                }
              }
              JOINT rPinky1
              {
                OFFSET -8.27202 -0.0477905 -0.4584
                CHANNELS 3 Zrotation Xrotation Yrotation
                JOINT rPinky2
                {
                  OFFSET -1.82734 -0.647385 -0.700984
                  CHANNELS 3 Zrotation Xrotation Yrotation
                  End Site
                  {
                    OFFSET -1.69225 -0.51767 -0.607171
                  }
                }
              }
            }
          }
        }
      }
      JOINT lCollar
      {
        OFFSET 2.68224 19.2634 -4.8768
        CHANNELS 3 Zrotation Xrotation Yrotation
        JOINT lShldr
        {
          OFFSET 8.77824 -1.95073 1.46304
          CHANNELS 3 Zrotation Xrotation Yrotation
          JOINT lForeArm
          {
            OFFSET 28.1742 -1.7115 0.48768
            CHANNELS 3 Zrotation Xrotation Yrotation
            JOINT lHand
            {
              OFFSET 22.5879 0.773209 7.07136
              CHANNELS 3 Zrotation Xrotation Yrotation
              JOINT lThumb1
              {
                OFFSET 1.2192 -0.487915 3.41376
                CHANNELS 3 Zrotation Xrotation Yrotation
                JOINT lThumb2
                {
                  OFFSET 3.37035 -0.52449 3.41376
                  CHANNELS 3 Zrotation Xrotation Yrotation
                  End Site
                  {
                    OFFSET 1.78271 -1.18214 1.43049
                  }
                }
              }
              JOINT lIndex1
              {
                OFFSET 7.75947 0.938293 5.60832
                CHANNELS 3 Zrotation Xrotation Yrotation
                JOINT lIndex2
                {
                  OFFSET 2.54057 -0.884171 1.56538
                  CHANNELS 3 Zrotation Xrotation Yrotation
                  End Site
                  {
                    OFFSET 1.62519 -0.234802 1.16502
                  }
                }
              }
              JOINT lMid1
              {
                OFFSET 8.24714 1.18213 3.41376
                CHANNELS 3 Zrotation Xrotation Yrotation
                JOINT lMid2
                {
                  OFFSET 3.10165 -0.590103 1.0647
                  CHANNELS 3 Zrotation Xrotation Yrotation
                  End Site
                  {
                    OFFSET 2.48547 -0.328903 0.83742
                  }
                }
              }
              JOINT lRing1
              {
                OFFSET 8.82822 0.546677 1.51678
                CHANNELS 3 Zrotation Xrotation Yrotation
                JOINT lRing2
                {
                  OFFSET 2.60934 -0.819778 -0.0198488
                  CHANNELS 3 Zrotation Xrotation Yrotation
                  End Site
                  {
                    OFFSET 2.33842 -0.294052 0.168128
                  }
                }
              }
              JOINT lPinky1
              {
                OFFSET 8.27202 -0.0477905 -0.4584
                CHANNELS 3 Zrotation Xrotation Yrotation
                JOINT lPinky2
                {
                  OFFSET 1.82734 -0.647385 -0.700984
                  CHANNELS 3 Zrotation Xrotation Yrotation
                  End Site
                  {
                    OFFSET 1.69225 -0.51767 -0.607171
                  }
                }
              }
            }
          }
        }
      }
    }
  }
  JOINT rButtock
  {
    OFFSET -8.77824 4.35084 1.2192
    CHANNELS 3 Zrotation Xrotation Yrotation
    JOINT rThigh
    {
      OFFSET 0 -1.70687 -2.19456
      CHANNELS 3 Zrotation Xrotation Yrotation
      JOINT rShin
      {
        OFFSET 0 -36.8199 0.73152
        CHANNELS 3 Zrotation Xrotation Yrotation
        JOINT rFoot
        {
          OFFSET 0.73152 -45.1104 -5.12064
          CHANNELS 3 Zrotation Xrotation Yrotation
          End Site
          {
            OFFSET -1.1221 -3.69964 12.103
          }
        }
      }
    }
  }
  JOINT lButtock
  {
    OFFSET 8.77824 4.35084 1.2192
    CHANNELS 3 Zrotation Xrotation Yrotation
    JOINT lThigh
    {
      OFFSET 0 -1.70687 -2.19456
      CHANNELS 3 Zrotation Xrotation Yrotation
      JOINT lShin
      {
        OFFSET 0 -36.8199 0.73152
        CHANNELS 3 Zrotation Xrotation Yrotation
        JOINT lFoot
        {
          OFFSET -0.73152 -45.1104 -5.12064
          CHANNELS 3 Zrotation Xrotation Yrotation
          End Site
          {
            OFFSET 1.1221 -3.69964 12.103
          }
        }
      }
    }
  }
}
MOTION
Frames:	6
Frame Time:	0.00833333
-0.575483 82.7408 1.36353 2.5887 -10.3542 2.789 -4.372 -2.8532 -3.90914 4.92359 -1.15813 -1.22315 -8.48221 -17.2561 -0.994335 11.4151 -24.0943 5.1883 -0.0 0.0 0.0 -0.0 0.0 0.0 -1.59595e-14 7.64165e-14 2.29858e-13 74.6369 24.114 -0.355259 -13.5081 -6.5643 24.5695 -0.525008 20.1441 2.9551 -9.61631e-10 1.90021e-09 -7.80524e-10 -1.67082e-09 3.28912e-09 -1.33261e-09 -9.61623e-10 1.90021e-09 -7.80534e-10 7.73091 5.47488 0.417314 -9.61636e-10 1.90021e-09 -7.80519e-10 2.90554 0.965183 0.102902 -9.61625e-10 1.90021e-09 -7.80524e-10 10.2786 0.731801 0.0259123 -9.61634e-10 1.90021e-09 -7.80515e-10 2.22167 -0.733487 -0.20892 -1.60487e-14 7.64234e-14 2.29629e-13 -22.2462 -27.839 -67.4997 28.3262 -38.0676 -80.525 0.392673 17.5373 -2.5455 -2.03136e-09 8.17461e-11 1.2239e-09 -3.49166e-09 1.66863e-10 2.14456e-09 -2.03137e-09 8.17452e-11 1.2239e-09 -7.73091 5.47488 -0.417314 -2.03136e-09 8.17461e-11 1.22389e-09 -2.90554 0.965183 -0.102902 -2.03137e-09 8.17448e-11 1.2239e-09 -10.2786 0.731801 -0.0259123 -2.03136e-09 8.17467e-11 1.22389e-09 -2.22167 -0.733487 0.20892 -2.03217e-16 0.0 -3.88251e-19 -6.91227 -11.2208 8.85334 -0.154371 23.8063 0.472395 -1.29646 -12.1093 -3.02465 2.03217e-16 0.0 3.88251e-19 -4.55679 -4.21166 -1.72525 0.018873 15.4149 -0.292931 1.45591 -9.3501 6.58261
-0.57567 82.7399 1.36921 2.6182 -10.3744 2.7906 -4.40228 -2.84601 -3.89286 4.9073 -1.17604 -1.21759 -8.45517 -17.2105 -1.00443 11.3942 -24.1933 5.15301 -0.0 0.0 0.0 -0.0 0.0 0.0 5.98064e-15 5.08373e-14 1.79972e-13 74.6695 24.106 -0.384735 -13.5196 -6.5733 24.5924 -0.526985 20.18 2.96084 -8.02383e-10 1.44338e-09 -6.28705e-10 -1.39386e-09 2.49815e-09 -1.07295e-09 -8.02376e-10 1.44338e-09 -6.28717e-10 7.73091 5.47488 0.417314 -8.02386e-10 1.44338e-09 -6.28704e-10 2.90554 0.965183 0.102902 -8.02377e-10 1.44338e-09 -6.28706e-10 10.2786 0.731801 0.0259123 -8.02386e-10 1.44338e-09 -6.28697e-10 2.22167 -0.733487 -0.20892 5.88159e-15 5.08403e-14 1.79776e-13 -22.1959 -27.8451 -67.496 28.3269 -38.0578 -80.5096 0.386701 17.4091 -2.52567 -1.40901e-09 8.11737e-11 8.00925e-10 -2.42184e-09 1.58579e-10 1.40487e-09 -1.40902e-09 8.11716e-11 8.00931e-10 -7.73091 5.47488 -0.417314 -1.40901e-09 8.11735e-11 8.00925e-10 -2.90554 0.965183 -0.102902 -1.40902e-09 8.11703e-11 8.00928e-10 -10.2786 0.731801 -0.0259123 -1.409e-09 8.1172e-11 8.0092e-10 -2.22167 -0.733487 0.20892 -2.03217e-16 0.0 -3.88251e-19 -6.92092 -11.2152 8.86808 -0.154866 23.811 0.472424 -1.29258 -12.115 -3.00988 2.03217e-16 0.0 3.88251e-19 -4.56768 -4.22554 -1.71213 0.0150818 15.463 -0.293452 1.46163 -9.38655 6.60095
-0.583043 82.7385 1.37761 2.6146 -10.4007 2.7996 -4.42882 -2.84421 -3.87728 4.88916 -1.19262 -1.21248 -8.42959 -17.1659 -1.01326 11.3844 -24.2791 5.12216 -0.0 0.0 0.0 -0.0 0.0 0.0 2.19721e-14 1.92201e-14 1.31577e-13 74.7042 24.1063 -0.417402 -13.5344 -6.58488 24.622 -0.52886 20.214 2.96627 -6.26675e-10 9.40003e-10 -4.09657e-10 -1.08752e-09 1.62593e-09 -6.97409e-10 -6.2667e-10 9.40002e-10 -4.09669e-10 7.73091 5.47488 0.417314 -6.26677e-10 9.39997e-10 -4.09658e-10 2.90554 0.965183 0.102902 -6.26669e-10 9.39997e-10 -4.09657e-10 10.2786 0.731801 0.0259123 -6.26679e-10 9.39999e-10 -4.0965e-10 2.22167 -0.733487 -0.20892 2.18657e-14 1.92192e-14 1.31414e-13 -22.1435 -27.8498 -67.4881 28.3275 -38.0489 -80.4957 0.380999 17.2847 -2.50647 -7.23823e-10 6.68719e-11 3.41736e-10 -1.24402e-09 1.25747e-10 6.0156e-10 -7.23833e-10 6.6869e-11 3.41743e-10 -7.73091 5.47488 -0.417314 -7.23821e-10 6.68716e-11 3.41738e-10 -2.90554 0.965183 -0.102902 -7.23829e-10 6.68667e-11 3.41742e-10 -10.2786 0.731801 -0.0259123 -7.23814e-10 6.68683e-11 3.41733e-10 -2.22167 -0.733487 0.20892 -2.03217e-16 0.0 -3.88251e-19 -6.92606 -11.2092 8.88461 -0.155399 23.8119 0.472333 -1.28887 -12.1206 -2.99595 2.03217e-16 0.0 3.88251e-19 -4.57537 -4.23851 -1.69729 0.011526 15.5081 -0.29394 1.46742 -9.42095 6.61982
-0.587039 82.7402 1.39468 2.6243 -10.4039 2.7681 -4.44195 -2.85517 -3.86728 4.87196 -1.20631 -1.20902 -8.40553 -17.1314 -1.01711 11.3681 -24.3367 5.09849 -0.0 0.0 0.0 -0.0 0.0 0.0 2.29139e-14 7.95915e-16 1.20911e-13 74.7301 24.1087 -0.4478 -13.5472 -6.59489 24.6475 -0.530425 20.2423 2.97079 -5.47389e-10 6.92725e-10 -2.26529e-10 -9.48091e-10 1.19635e-09 -3.82342e-10 -5.47385e-10 6.92723e-10 -2.26541e-10 7.73091 5.47488 0.417314 -5.4739e-10 6.92719e-10 -2.26532e-10 2.90554 0.965183 0.102902 -5.47383e-10 6.92718e-10 -2.26529e-10 10.2786 0.731801 0.0259123 -5.47394e-10 6.92721e-10 -2.26522e-10 2.22167 -0.733487 -0.20892 2.28081e-14 7.93586e-16 1.20762e-13 -22.1169 -27.8613 -67.4853 28.328 -38.0421 -80.4847 0.378435 17.2281 -2.49775 -3.61362e-10 3.2448e-11 7.91449e-11 -6.21174e-10 6.17886e-11 1.42156e-10 -3.61371e-10 3.24456e-11 7.91545e-11 -7.73091 5.47488 -0.417314 -3.6136e-10 3.24479e-11 7.91481e-11 -2.90554 0.965183 -0.102902 -3.61368e-10 3.24423e-11 7.91521e-11 -10.2786 0.731801 -0.0259123 -3.61354e-10 3.2444e-11 7.91417e-11 -2.22167 -0.733487 0.20892 -2.03217e-16 0.0 -3.88251e-19 -6.92361 -11.2082 8.89705 -0.155865 23.8102 0.472124 -1.28782 -12.1229 -2.9906 2.03217e-16 0.0 3.88251e-19 -4.57606 -4.24933 -1.68537 0.00929498 15.5368 -0.294229 1.47147 -9.43874 6.63382
-0.599663 82.7373 1.39705 2.5726 -10.3902 2.8031 -4.42984 -2.88691 -3.86954 4.85583 -1.21682 -1.20911 -8.38455 -17.1054 -1.01224 11.3435 -24.3608 5.08881 -0.0 0.0 0.0 -0.0 0.0 0.0 -1.99311e-15 9.50034e-16 1.76304e-13 74.7433 24.1223 -0.478558 -13.5591 -6.60414 24.6711 -0.531363 20.2592 2.97349 -6.18002e-10 8.36477e-10 -6.71143e-11 -1.06761e-09 1.44211e-09 -1.05803e-10 -6.17999e-10 8.36476e-10 -6.71271e-11 7.73091 5.47488 0.417314 -6.18003e-10 8.36472e-10 -6.71191e-11 2.90554 0.965183 0.102902 -6.17995e-10 8.36472e-10 -6.71152e-11 10.2786 0.731801 0.0259123 -6.18006e-10 8.36474e-10 -6.71089e-11 2.22167 -0.733487 -0.20892 -2.08794e-15 9.50101e-16 1.76141e-13 -22.1264 -27.8854 -67.4838 28.3284 -38.0386 -80.478 0.380398 17.2713 -2.50442 -4.87219e-10 -4.05367e-11 1.09184e-10 -8.38098e-10 -6.33291e-11 1.94593e-10 -4.87227e-10 -4.05363e-11 1.09196e-10 -7.73091 5.47488 -0.417314 -4.87218e-10 -4.05359e-11 1.09187e-10 -2.90554 0.965183 -0.102902 -4.87225e-10 -4.05411e-11 1.09189e-10 -10.2786 0.731801 -0.0259123 -4.87213e-10 -4.05385e-11 1.09177e-10 -2.22167 -0.733487 0.20892 -2.03217e-16 0.0 -3.88251e-19 -6.90509 -11.2157 8.90517 -0.156427 23.8034 0.471631 -1.29184 -12.1198 -3.00156 2.03217e-16 0.0 3.88251e-19 -4.56223 -4.26145 -1.67814 0.0088043 15.5454 -0.294245 1.47303 -9.431 6.64094
-0.613706 82.7345 1.39894 2.5151 -10.3964 2.8434 -4.40076 -2.9335 -3.87966 4.83949 -1.22493 -1.21157 -8.36611 -17.0845 -1.00155 11.3191 -24.3598 5.08966 -0.0 0.0 0.0 -0.0 0.0 0.0 -4.51044e-14 9.3402e-15 2.72208e-13 74.7499 24.1468 -0.511239 -13.572 -6.6142 24.6968 -0.531867 20.2683 2.97494 -7.70518e-10 1.19177e-09 1.10361e-10 -1.32817e-09 2.05281e-09 2.03268e-10 -7.70515e-10 1.19177e-09 1.10349e-10 7.73091 5.47488 0.417314 -7.7052e-10 1.19177e-09 1.10355e-10 2.90554 0.965183 0.102902 -7.7051e-10 1.19177e-09 1.10359e-10 10.2786 0.731801 0.0259123 -7.70521e-10 1.19177e-09 1.10366e-10 2.22167 -0.733487 -0.20892 -4.5181e-14 9.34488e-15 2.72015e-13 -22.1561 -27.9163 -67.4806 28.3287 -38.0374 -80.4745 0.385155 17.3752 -2.52045 -8.74838e-10 -1.43095e-10 2.96367e-10 -1.50521e-09 -2.36671e-10 5.21768e-10 -8.74843e-10 -1.4309e-10 2.96383e-10 -7.73091 5.47488 -0.417314 -8.74836e-10 -1.43093e-10 2.96369e-10 -2.90554 0.965183 -0.102902 -8.74844e-10 -1.43096e-10 2.96368e-10 -10.2786 0.731801 -0.0259123 -8.74834e-10 -1.43093e-10 2.96355e-10 -2.22167 -0.733487 0.20892 -2.03217e-16 0.0 -3.88251e-19 -6.87515 -11.2281 8.91166 -0.157079 23.7919 0.470908 -1.29903 -12.1134 -3.02282 2.03217e-16 0.0 3.88251e-19 -4.53808 -4.27427 -1.67293 0.00943084 15.5409 -0.294085 1.47314 -9.40718 6.64424
